<?xml version="1.0" standalone="no"?>
<!DOCTYPE svg PUBLIC "-//W3C//DTD SVG 20010904//EN"
 "http://www.w3.org/TR/2001/REC-SVG-20010904/DTD/svg10.dtd">
<svg version="1.0" xmlns="http://www.w3.org/2000/svg"
 width="64px" height="64px" viewBox="0 0 70.000000 70.000000"
 preserveAspectRatio="xMidYMid meet">

<g transform="translate(0.000000,70.000000) scale(0.100000,-0.100000)"
fill="#e9460f" stroke="none">
<path d="M340 663 c0 -42 -31 -84 -129 -181 -109 -106 -141 -165 -141 -260 0
-88 41 -161 112 -198 39 -20 40 -18 12 24 -31 45 -29 103 5 151 27 38 39 39
43 5 4 -37 42 -50 68 -24 26 26 25 42 -5 78 -31 37 -41 82 -25 112 l12 23 15
-24 c8 -13 50 -48 94 -77 92 -61 119 -98 119 -164 0 -36 -6 -54 -27 -78 l-27
-32 40 20 c140 72 164 229 54 344 -51 53 -65 58 -73 28 -7 -28 -53 -37 -79
-14 -18 17 -19 26 -13 79 12 97 7 135 -20 177 -14 21 -27 38 -30 38 -3 0 -5
-12 -5 -27z"/>
</g>
</svg>
