<?xml version="1.0" encoding="UTF-8"?>
<svg xmlns="http://www.w3.org/2000/svg" xmlns:xlink="http://www.w3.org/1999/xlink" width="64px" height="64px" viewBox="0 0 64 64" version="1.1">
<g id="surface1">
<path style=" stroke:none;fill-rule:nonzero;fill:rgb(0%,0%,0%);fill-opacity:1;" d="M 62.789062 38.324219 C 62.417969 37.195312 61.441406 36.410156 60.183594 36.222656 C 59.585938 36.136719 58.90625 36.171875 58.101562 36.339844 C 56.699219 36.628906 55.65625 36.738281 54.894531 36.761719 C 57.765625 31.914062 60.097656 26.390625 61.441406 21.191406 C 63.613281 12.78125 62.453125 8.949219 61.097656 7.214844 C 57.507812 2.628906 52.269531 0.164062 45.953125 0.0898438 C 42.582031 0.0507812 39.621094 0.714844 38.078125 1.191406 C 36.640625 0.9375 35.097656 0.796875 33.476562 0.773438 C 30.4375 0.722656 27.75 1.386719 25.457031 2.746094 C 24.1875 2.316406 22.148438 1.710938 19.792969 1.324219 C 14.253906 0.417969 9.792969 1.125 6.527344 3.429688 C 2.574219 6.222656 0.742188 11.074219 1.082031 17.851562 C 1.1875 20 2.390625 26.546875 4.289062 32.753906 C 5.375 36.324219 6.539062 39.285156 7.738281 41.5625 C 9.441406 44.789062 11.265625 46.691406 13.3125 47.375 C 14.457031 47.753906 16.542969 48.023438 18.734375 46.199219 C 19.011719 46.535156 19.382812 46.867188 19.875 47.179688 C 20.5 47.574219 21.261719 47.894531 22.027344 48.085938 C 24.773438 48.773438 27.351562 48.601562 29.546875 47.636719 C 29.5625 48.027344 29.570312 48.402344 29.582031 48.722656 C 29.59375 49.246094 29.609375 49.761719 29.628906 50.238281 C 29.757812 53.480469 29.980469 56.003906 30.632812 57.765625 C 30.667969 57.863281 30.71875 58.011719 30.769531 58.167969 C 31.09375 59.167969 31.640625 60.835938 33.027344 62.148438 C 34.460938 63.503906 36.199219 63.917969 37.792969 63.917969 C 38.589844 63.917969 39.351562 63.8125 40.019531 63.671875 C 42.398438 63.160156 45.101562 62.382812 47.058594 59.597656 C 48.90625 56.964844 49.808594 53 49.96875 46.753906 C 49.992188 46.574219 50.011719 46.40625 50.027344 46.246094 L 50.066406 45.914062 L 50.503906 45.953125 L 50.617188 45.960938 C 53.039062 46.070312 56.003906 45.558594 57.824219 44.710938 C 59.265625 44.042969 63.875 41.609375 62.789062 38.324219 "/>
<path style=" stroke:none;fill-rule:nonzero;fill:rgb(20%,40.392157%,56.862745%);fill-opacity:1;" d="M 58.644531 38.964844 C 51.433594 40.449219 50.9375 38.007812 50.9375 38.007812 C 58.550781 26.714844 61.734375 12.375 58.988281 8.867188 C 51.496094 -0.703125 38.527344 3.820312 38.308594 3.9375 L 38.242188 3.953125 C 36.816406 3.65625 35.222656 3.480469 33.429688 3.449219 C 30.167969 3.398438 27.695312 4.304688 25.816406 5.730469 C 25.816406 5.730469 2.679688 -3.800781 3.757812 17.714844 C 3.984375 22.292969 10.316406 52.351562 17.871094 43.273438 C 20.632812 39.953125 23.296875 37.144531 23.296875 37.144531 C 24.625 38.027344 26.210938 38.476562 27.871094 38.3125 L 28 38.203125 C 27.960938 38.617188 27.980469 39.019531 28.050781 39.496094 C 26.105469 41.671875 26.679688 42.050781 22.789062 42.851562 C 18.855469 43.664062 21.164062 45.109375 22.675781 45.484375 C 24.503906 45.945312 28.738281 46.589844 31.597656 42.585938 L 31.484375 43.042969 C 32.246094 43.65625 32.78125 47.015625 32.691406 50.0625 C 32.605469 53.109375 32.542969 55.203125 33.144531 56.835938 C 33.746094 58.46875 34.34375 62.144531 39.457031 61.050781 C 43.730469 60.132812 45.941406 57.761719 46.25 53.804688 C 46.46875 50.992188 46.964844 51.40625 46.996094 48.890625 L 47.390625 47.699219 C 47.851562 43.886719 47.464844 42.65625 50.097656 43.226562 L 50.738281 43.285156 C 52.675781 43.371094 55.210938 42.972656 56.699219 42.28125 C 59.902344 40.792969 61.804688 38.308594 58.644531 38.964844 "/>
<path style=" stroke:none;fill-rule:nonzero;fill:rgb(100%,100%,100%);fill-opacity:1;" d="M 27.171875 19.761719 C 26.519531 19.671875 25.933594 19.757812 25.632812 19.980469 C 25.46875 20.109375 25.414062 20.257812 25.402344 20.355469 C 25.363281 20.625 25.550781 20.921875 25.667969 21.074219 C 25.992188 21.507812 26.46875 21.804688 26.941406 21.867188 C 27.007812 21.878906 27.078125 21.882812 27.144531 21.882812 C 27.933594 21.882812 28.648438 21.269531 28.710938 20.820312 C 28.789062 20.253906 27.96875 19.875 27.171875 19.765625 M 48.691406 19.78125 C 48.632812 19.335938 47.839844 19.210938 47.09375 19.316406 C 46.34375 19.417969 45.617188 19.757812 45.679688 20.203125 C 45.726562 20.546875 46.351562 21.140625 47.089844 21.140625 C 47.152344 21.140625 47.214844 21.136719 47.28125 21.125 C 47.773438 21.058594 48.136719 20.742188 48.308594 20.5625 C 48.570312 20.289062 48.722656 19.980469 48.691406 19.78125 "/>
<path style=" stroke:none;fill-rule:nonzero;fill:rgb(100%,100%,100%);fill-opacity:1;" d="M 61.042969 38.792969 C 60.769531 37.960938 59.882812 37.695312 58.414062 38 C 54.046875 38.898438 52.484375 38.277344 51.972656 37.898438 C 55.363281 32.730469 58.15625 26.480469 59.660156 20.652344 C 60.375 17.890625 60.769531 15.328125 60.800781 13.238281 C 60.835938 10.941406 60.445312 9.257812 59.640625 8.226562 C 56.390625 4.074219 51.621094 1.847656 45.851562 1.789062 C 41.882812 1.742188 38.527344 2.757812 37.878906 3.042969 C 36.511719 2.703125 35.019531 2.496094 33.394531 2.46875 C 30.414062 2.417969 27.839844 3.132812 25.707031 4.585938 C 24.78125 4.242188 22.390625 3.421875 19.460938 2.949219 C 14.402344 2.132812 10.382812 2.75 7.511719 4.785156 C 4.089844 7.210938 2.507812 11.546875 2.8125 17.671875 C 2.917969 19.730469 4.089844 26.070312 5.945312 32.144531 C 8.382812 40.136719 11.035156 44.660156 13.824219 45.589844 C 14.152344 45.699219 14.527344 45.773438 14.941406 45.773438 C 15.960938 45.773438 17.207031 45.316406 18.507812 43.753906 C 20.089844 41.855469 21.726562 40.003906 23.417969 38.199219 C 24.515625 38.785156 25.71875 39.113281 26.953125 39.148438 C 26.953125 39.179688 26.957031 39.210938 26.960938 39.242188 C 26.75 39.496094 26.542969 39.753906 26.339844 40.015625 C 25.484375 41.097656 25.304688 41.324219 22.558594 41.890625 C 21.777344 42.050781 19.699219 42.480469 19.667969 43.933594 C 19.636719 45.523438 22.125 46.191406 22.40625 46.261719 C 23.394531 46.511719 24.347656 46.632812 25.253906 46.632812 C 27.460938 46.632812 29.402344 45.90625 30.953125 44.503906 C 30.90625 50.171875 31.144531 55.757812 31.824219 57.460938 C 32.382812 58.855469 33.742188 62.261719 38.046875 62.261719 C 38.675781 62.261719 39.371094 62.1875 40.136719 62.023438 C 44.625 61.058594 46.574219 59.074219 47.328125 54.699219 C 47.734375 52.363281 48.425781 46.777344 48.753906 43.785156 C 49.441406 44 50.324219 44.097656 51.28125 44.097656 C 53.277344 44.097656 55.578125 43.671875 57.023438 43.003906 C 58.644531 42.25 61.574219 40.398438 61.042969 38.792969 Z M 50.351562 18.554688 C 50.335938 19.441406 50.214844 20.242188 50.085938 21.082031 C 49.945312 21.980469 49.800781 22.914062 49.765625 24.042969 C 49.730469 25.144531 49.867188 26.289062 50 27.394531 C 50.269531 29.632812 50.546875 31.933594 49.480469 34.203125 C 49.300781 33.890625 49.144531 33.5625 49.003906 33.230469 C 48.875 32.910156 48.585938 32.394531 48.1875 31.679688 C 46.636719 28.898438 43.003906 22.382812 44.863281 19.722656 C 45.414062 18.933594 46.820312 18.117188 50.351562 18.554688 Z M 46.074219 3.578125 C 51.246094 3.691406 55.335938 5.625 58.234375 9.328125 C 60.453125 12.167969 58.007812 25.085938 50.925781 36.230469 C 50.855469 36.140625 50.785156 36.046875 50.710938 35.957031 L 50.621094 35.847656 C 52.453125 32.824219 52.09375 29.835938 51.773438 27.183594 C 51.644531 26.09375 51.519531 25.066406 51.550781 24.101562 C 51.585938 23.078125 51.71875 22.203125 51.851562 21.351562 C 52.011719 20.308594 52.175781 19.226562 52.128906 17.949219 C 52.164062 17.816406 52.175781 17.65625 52.160156 17.46875 C 52.042969 16.246094 50.648438 12.585938 47.800781 9.273438 C 46.246094 7.460938 43.976562 5.433594 40.875 4.066406 C 42.207031 3.789062 44.03125 3.53125 46.074219 3.578125 Z M 17.132812 42.613281 C 15.703125 44.332031 14.714844 44.003906 14.390625 43.894531 C 12.273438 43.1875 9.816406 38.714844 7.652344 31.621094 C 5.78125 25.484375 4.683594 19.3125 4.597656 17.582031 C 4.324219 12.109375 5.652344 8.292969 8.542969 6.242188 C 13.246094 2.910156 20.980469 4.90625 24.085938 5.917969 C 24.042969 5.960938 23.996094 6.003906 23.953125 6.046875 C 18.851562 11.199219 18.972656 19.996094 18.984375 20.535156 C 18.984375 20.742188 19.003906 21.035156 19.027344 21.441406 C 19.113281 22.921875 19.277344 25.675781 18.839844 28.792969 C 18.4375 31.691406 19.328125 34.53125 21.292969 36.578125 C 21.492188 36.789062 21.707031 36.988281 21.925781 37.175781 C 21.054688 38.113281 19.15625 40.179688 17.132812 42.613281 Z M 22.582031 35.34375 C 21 33.691406 20.28125 31.394531 20.609375 29.042969 C 21.070312 25.746094 20.902344 22.875 20.808594 21.335938 C 20.796875 21.117188 20.785156 20.929688 20.78125 20.78125 C 21.523438 20.121094 24.976562 18.269531 27.4375 18.835938 C 28.5625 19.089844 29.246094 19.855469 29.53125 21.171875 C 31.003906 27.984375 29.726562 30.824219 28.699219 33.105469 C 28.488281 33.578125 28.289062 34.019531 28.117188 34.480469 L 27.984375 34.835938 C 27.648438 35.734375 27.339844 36.570312 27.144531 37.363281 C 25.460938 37.359375 23.828125 36.640625 22.582031 35.339844 Z M 22.839844 44.53125 C 22.347656 44.40625 21.90625 44.195312 21.648438 44.015625 C 21.863281 43.914062 22.25 43.777344 22.917969 43.640625 C 26.152344 42.972656 26.652344 42.503906 27.742188 41.121094 C 27.992188 40.800781 28.273438 40.441406 28.667969 40.003906 C 29.253906 39.347656 29.519531 39.460938 30.003906 39.660156 C 30.398438 39.824219 30.78125 40.316406 30.933594 40.859375 C 31.007812 41.113281 31.089844 41.601562 30.820312 41.976562 C 28.542969 45.167969 25.222656 45.125 22.839844 44.53125 Z M 39.761719 60.277344 C 35.804688 61.125 34.40625 59.105469 33.484375 56.796875 C 32.886719 55.308594 32.59375 48.589844 32.800781 41.175781 C 32.804688 41.074219 32.789062 40.980469 32.761719 40.890625 C 32.738281 40.714844 32.703125 40.539062 32.652344 40.367188 C 32.34375 39.289062 31.589844 38.382812 30.6875 38.011719 C 30.328125 37.863281 29.671875 37.589844 28.878906 37.792969 C 29.046875 37.097656 29.339844 36.3125 29.660156 35.460938 L 29.792969 35.101562 C 29.941406 34.699219 30.128906 34.28125 30.328125 33.839844 C 31.402344 31.453125 32.875 28.183594 31.277344 20.796875 C 30.679688 18.027344 28.679688 16.675781 25.652344 16.992188 C 23.835938 17.179688 22.175781 17.910156 21.347656 18.332031 C 21.167969 18.421875 21.003906 18.507812 20.851562 18.59375 C 21.085938 15.804688 21.957031 10.59375 25.226562 7.300781 C 27.285156 5.222656 30.023438 4.199219 33.363281 4.253906 C 39.945312 4.363281 44.164062 7.738281 46.542969 10.550781 C 48.597656 12.976562 49.707031 15.417969 50.148438 16.738281 C 46.816406 16.398438 44.546875 17.054688 43.398438 18.699219 C 40.898438 22.273438 44.765625 29.214844 46.625 32.546875 C 46.96875 33.160156 47.261719 33.6875 47.355469 33.914062 C 47.960938 35.378906 48.742188 36.359375 49.316406 37.074219 C 49.492188 37.292969 49.660156 37.507812 49.792969 37.691406 C 48.78125 37.984375 46.96875 38.65625 47.132812 42.019531 C 47 43.707031 46.050781 51.605469 45.570312 54.398438 C 44.933594 58.085938 43.578125 59.457031 39.761719 60.277344 Z M 56.273438 41.382812 C 55.238281 41.863281 53.511719 42.222656 51.867188 42.296875 C 50.054688 42.382812 49.132812 42.09375 48.914062 41.917969 C 48.8125 39.824219 49.59375 39.601562 50.417969 39.371094 C 50.546875 39.335938 50.675781 39.300781 50.796875 39.257812 C 50.875 39.320312 50.957031 39.378906 51.046875 39.441406 C 52.503906 40.402344 55.105469 40.507812 58.773438 39.75 L 58.816406 39.742188 C 58.320312 40.203125 57.472656 40.824219 56.273438 41.382812 Z M 56.273438 41.382812 "/>
</g>
</svg>
